<svg width="60" height="60" viewBox="0 0 60 60" fill="none" xmlns="http://www.w3.org/2000/svg">
<path d="M56.5898 0.29684C56.3593 0.27731 56.1249 0.28512 55.8906 0.32028L49.7539 1.21872C42.3632 2.30075 35.6132 6.01168 30.746 11.6718L21.9257 21.9179L6.58198 25.7343C5.56245 25.9882 4.66401 26.5468 3.98042 27.3476L0.703072 31.2031C0.191352 31.8047 0.0780718 32.625 0.410102 33.3398C0.742132 34.0547 1.43745 34.5 2.22651 34.5H12.414C12.4609 34.8984 12.5898 35.2812 12.7929 35.6367L10.6367 39.6054C10.6093 39.6562 10.5859 39.7109 10.5664 39.7656C10.4687 40.0625 10.4179 40.3672 10.4101 40.6679L9.9609 40.8047C6.35151 41.9101 3.60932 44.6875 2.62104 48.2343C1.79682 51.1992 1.55854 54.2539 1.49213 55.8164C1.4726 56.375 1.68354 56.9179 2.07807 57.3125C2.44917 57.6836 2.96088 57.8945 3.48432 57.8945C3.51557 57.8945 3.54292 57.8945 3.57026 57.8906C5.12104 57.8281 8.164 57.5937 11.1171 56.7773C14.6406 55.8007 17.4999 52.957 18.5742 49.3593L18.6406 49.1328C18.6953 49.1367 18.746 49.1445 18.8007 49.1445C19.1445 49.1445 19.4921 49.0898 19.8398 48.9765C19.8906 48.9609 19.9374 48.9375 19.9843 48.9101L23.9648 46.8125C24.289 47.0039 24.6367 47.1289 24.9999 47.1875V57.2773C24.9999 58.0664 25.4414 58.7617 26.1562 59.0937C26.4296 59.2187 26.7187 59.2812 27.0039 59.2812C27.4687 59.2812 27.9218 59.1172 28.2929 58.8007L32.1523 55.5195C32.9531 54.8359 33.5078 53.9375 33.7656 52.9179L37.5156 37.832L47.9374 28.8632C53.5976 23.9961 57.3085 17.2422 58.3906 9.8554L59.2851 3.71871C59.4296 2.77731 59.121 1.84372 58.4453 1.16793C57.9374 0.66012 57.2812 0.35934 56.5898 0.29684ZM56.3281 2.28903C56.5898 2.28903 56.8398 2.39059 57.0312 2.57809C57.2539 2.80465 57.3593 3.11715 57.3124 3.43356L56.414 9.5664C55.4023 16.4804 51.9296 22.7968 46.6367 27.3515L36.1914 36.3398C36.0468 36.414 35.9179 36.5156 35.8242 36.6562L26.1289 44.9961C25.7382 45.3359 25.1406 45.3125 24.7695 44.9453L14.6679 34.8437C14.3007 34.4726 14.2773 33.875 14.6132 33.4843L32.2617 12.9765C34.4257 10.4609 36.9882 8.3632 39.8242 6.73825L44.2929 11.207C44.4882 11.4023 44.7421 11.5 44.9999 11.5C45.2578 11.5 45.5117 11.4023 45.707 11.207C46.0976 10.8164 46.0976 10.1836 45.707 9.7929L41.6757 5.76168C44.3007 4.49997 47.1171 3.62496 50.0429 3.19528L56.1757 2.29684C56.2265 2.29293 56.2773 2.28903 56.3281 2.28903ZM47.9999 12.5C47.746 12.5 47.4882 12.5976 47.2929 12.7929C46.9023 13.1836 46.9023 13.8164 47.2929 14.207L50.2929 17.207C50.4882 17.4023 50.7421 17.5 50.9999 17.5C51.2578 17.5 51.5117 17.4023 51.707 17.207C52.0976 16.8164 52.0976 16.1836 51.707 15.7929L48.707 12.7929C48.5117 12.5976 48.2539 12.5 47.9999 12.5ZM39.9999 13.5C36.6914 13.5 33.9999 16.1914 33.9999 19.5C33.9999 22.8086 36.6914 25.5 39.9999 25.5C43.3085 25.5 45.9999 22.8086 45.9999 19.5C45.9999 16.1914 43.3085 13.5 39.9999 13.5ZM39.9999 15.5C42.207 15.5 43.9999 17.2929 43.9999 19.5C43.9999 21.707 42.207 23.5 39.9999 23.5C37.7929 23.5 35.9999 21.707 35.9999 19.5C35.9999 17.2929 37.7929 15.5 39.9999 15.5ZM19.6718 24.539L13.1015 32.1757C13.0156 32.2812 12.9453 32.3906 12.8749 32.5H2.22651L5.50776 28.6406C5.91401 28.164 6.45307 27.8281 7.0664 27.6757L19.6718 24.539ZM32.2773 24.9218C32.0195 24.9218 31.7656 25.0195 31.5664 25.2148C31.1757 25.6054 31.1757 26.2382 31.5664 26.6289L32.9843 28.0429C33.1757 28.2382 33.4335 28.3359 33.6874 28.3359C33.9453 28.3359 34.2031 28.2382 34.3945 28.0429C34.789 27.6523 34.789 27.0195 34.3945 26.6289L32.9843 25.2148C32.7851 25.0195 32.5312 24.9218 32.2773 24.9218ZM28.7382 28.457C28.4843 28.457 28.2265 28.5547 28.0312 28.75C27.6406 29.1406 27.6406 29.7734 28.0312 30.164L29.4492 31.5781C29.6406 31.7734 29.8984 31.8711 30.1562 31.8711C30.4101 31.8711 30.6679 31.7734 30.8593 31.5781C31.2539 31.1875 31.2539 30.5547 30.8593 30.1601L29.4453 28.75C29.2499 28.5547 28.9921 28.457 28.7382 28.457ZM25.2031 31.9961C24.9492 31.9961 24.6914 32.0898 24.496 32.2851C24.1054 32.6797 24.1054 33.3086 24.496 33.7031L25.9101 35.1132C26.1054 35.3086 26.3593 35.4062 26.6171 35.4062C26.8749 35.4062 27.1289 35.3086 27.3242 35.1132C27.7148 34.7226 27.7148 34.0937 27.3242 33.7031L25.9101 32.2851C25.7148 32.0898 25.457 31.9961 25.2031 31.9961ZM21.6718 35.5312C21.414 35.5312 21.1601 35.625 20.9648 35.8242C20.5703 36.2109 20.5703 36.8437 20.9648 37.2343L22.3749 38.6523C22.5703 38.8437 22.8242 38.9414 23.082 38.9414C23.3398 38.9414 23.5937 38.8437 23.789 38.6523C24.1796 38.2617 24.1796 37.6289 23.789 37.2343L22.3749 35.8242C22.1796 35.625 21.9257 35.5312 21.6718 35.5312ZM14.2148 37.2148L22.3867 45.3906L19.1367 47.1015C18.7539 47.2109 18.3867 47.1328 18.1484 46.8945L12.7148 41.4648C12.4531 41.1992 12.3515 40.8242 12.4414 40.4687L14.2148 37.2148ZM34.8945 40.0937L31.8242 52.4375C31.6718 53.0468 31.3398 53.5898 30.8593 54L26.9999 57.2773V46.8203C27.1523 46.7304 27.2968 46.6289 27.4374 46.5117L34.8945 40.0937ZM11.0312 42.5664C11.1132 42.6757 11.2031 42.7812 11.3007 42.875L16.7343 48.3125C16.7499 48.3281 16.7695 48.3359 16.7851 48.3554L16.6562 48.7851C15.7773 51.7343 13.4492 54.0547 10.582 54.8476C7.8242 55.6132 4.95307 55.832 3.49213 55.9023C3.55463 54.4297 3.77729 51.5429 4.54682 48.7695C5.35151 45.8867 7.5937 43.6211 10.5468 42.7187L11.0312 42.5664Z" fill="url(#paint0_linear_1_1230)"/>
<defs>
<linearGradient id="paint0_linear_1_1230" x1="58.9999" y1="-7" x2="12.4999" y2="59" gradientUnits="userSpaceOnUse">
<stop stop-color="#8989F8"/>
<stop offset="1" stop-color="#5C5CFF"/>
</linearGradient>
</defs>
</svg>
