<svg width="20" height="18" viewBox="0 0 20 18" fill="none" xmlns="http://www.w3.org/2000/svg">
<path d="M19.9616 2.80766C19.2242 3.13183 18.4367 3.35266 17.6075 3.45349C18.4525 2.94433 19.1025 2.14183 19.41 1.18433C18.6175 1.64683 17.7392 1.98349 16.8042 2.17099C16.0575 1.37183 14.9933 0.871826 13.8116 0.871826C11.5475 0.871826 9.71158 2.70766 9.71158 4.96933C9.71158 5.29433 9.74917 5.60683 9.8175 5.90599C6.40916 5.74516 3.38833 4.10849 1.36667 1.63433C1.01083 2.23599 0.811667 2.93516 0.811667 3.69683C0.811667 5.12183 1.53667 6.37433 2.635 7.11016C1.96249 7.08849 1.33 6.90349 0.778333 6.59683V6.64766C0.778333 8.63517 2.18916 10.2927 4.06667 10.6702C3.72249 10.7627 3.35916 10.8127 2.98667 10.8127C2.725 10.8127 2.47416 10.7877 2.22333 10.741C2.74916 12.3685 4.26083 13.5552 6.06 13.5885C4.66 14.6877 2.88583 15.3427 0.975 15.3427C0.65 15.3427 0.325833 15.3235 0 15.2868C1.82416 16.4485 3.97333 17.1277 6.29749 17.1277C13.8425 17.1277 17.9633 10.881 17.9633 5.47266C17.9633 5.29849 17.9633 5.12266 17.9508 4.94766C18.7516 4.37349 19.4508 3.64767 20.0008 2.82433L19.9616 2.80766Z" fill="white"/>
</svg>
